<mxfile host="app.diagrams.net" agent="Mozilla/5.0 (Windows NT 10.0; Win64; x64) AppleWebKit/537.36 (KHTML, like Gecko) Chrome/130.0.0.0 Safari/537.36" version="24.8.3">
  <diagram name="Page-1" id="JHVQbRjfGQgwWqY_SUUf">
    <mxGraphModel dx="2950" dy="2214" grid="1" gridSize="10" guides="1" tooltips="1" connect="1" arrows="1" fold="1" page="1" pageScale="1" pageWidth="850" pageHeight="1100" math="0" shadow="0">
      <root>
        <mxCell id="0" />
        <mxCell id="1" parent="0" />
        <mxCell id="dtDx4Wq0XOJL7daBtxin-107" value="" style="rounded=0;whiteSpace=wrap;html=1;" vertex="1" parent="1">
          <mxGeometry x="-40" y="-160" width="1440" height="720" as="geometry" />
        </mxCell>
        <mxCell id="dtDx4Wq0XOJL7daBtxin-100" value="" style="rounded=0;whiteSpace=wrap;html=1;strokeWidth=2;" vertex="1" parent="1">
          <mxGeometry x="360" y="10" width="760" height="500" as="geometry" />
        </mxCell>
        <mxCell id="dtDx4Wq0XOJL7daBtxin-1" value="&lt;font face=&quot;Helvetica&quot; style=&quot;font-size: 16px;&quot;&gt;&lt;b style=&quot;&quot;&gt;Input Data&lt;/b&gt;&lt;/font&gt;" style="ellipse;whiteSpace=wrap;html=1;strokeColor=default;strokeWidth=2;" vertex="1" parent="1">
          <mxGeometry x="10" y="205" width="70" height="70" as="geometry" />
        </mxCell>
        <mxCell id="dtDx4Wq0XOJL7daBtxin-3" value="&lt;font style=&quot;font-size: 16px;&quot;&gt;&lt;b style=&quot;&quot;&gt;Data Pre-Processing&lt;/b&gt;&lt;/font&gt;" style="rounded=0;whiteSpace=wrap;html=1;strokeWidth=2;" vertex="1" parent="1">
          <mxGeometry x="120" y="210" width="170" height="60" as="geometry" />
        </mxCell>
        <mxCell id="dtDx4Wq0XOJL7daBtxin-4" value="&lt;font face=&quot;Helvetica&quot; style=&quot;font-size: 16px;&quot;&gt;&lt;b style=&quot;&quot;&gt;x1&lt;/b&gt;&lt;/font&gt;" style="ellipse;whiteSpace=wrap;html=1;fillColor=#FFFFCC;" vertex="1" parent="1">
          <mxGeometry x="400" y="120" width="40" height="40" as="geometry" />
        </mxCell>
        <mxCell id="dtDx4Wq0XOJL7daBtxin-5" value="&lt;font style=&quot;font-size: 16px;&quot;&gt;&lt;b style=&quot;&quot;&gt;x2&lt;/b&gt;&lt;/font&gt;" style="ellipse;whiteSpace=wrap;html=1;fillColor=#FFFFCC;" vertex="1" parent="1">
          <mxGeometry x="400" y="220" width="40" height="40" as="geometry" />
        </mxCell>
        <mxCell id="dtDx4Wq0XOJL7daBtxin-6" value="&lt;font face=&quot;Helvetica&quot; style=&quot;font-size: 16px;&quot;&gt;&lt;b style=&quot;&quot;&gt;xn&lt;/b&gt;&lt;/font&gt;" style="ellipse;whiteSpace=wrap;html=1;fillColor=#FFFFCC;" vertex="1" parent="1">
          <mxGeometry x="400" y="340" width="40" height="40" as="geometry" />
        </mxCell>
        <mxCell id="dtDx4Wq0XOJL7daBtxin-7" value="" style="ellipse;whiteSpace=wrap;html=1;fillColor=#009999;" vertex="1" parent="1">
          <mxGeometry x="540" y="80" width="40" height="40" as="geometry" />
        </mxCell>
        <mxCell id="dtDx4Wq0XOJL7daBtxin-8" value="" style="ellipse;whiteSpace=wrap;html=1;fillColor=#009999;" vertex="1" parent="1">
          <mxGeometry x="540" y="180" width="40" height="40" as="geometry" />
        </mxCell>
        <mxCell id="dtDx4Wq0XOJL7daBtxin-9" value="" style="ellipse;whiteSpace=wrap;html=1;fillColor=#009999;" vertex="1" parent="1">
          <mxGeometry x="540" y="280" width="40" height="40" as="geometry" />
        </mxCell>
        <mxCell id="dtDx4Wq0XOJL7daBtxin-10" value="" style="ellipse;whiteSpace=wrap;html=1;fillColor=#009999;" vertex="1" parent="1">
          <mxGeometry x="540" y="390" width="40" height="40" as="geometry" />
        </mxCell>
        <mxCell id="dtDx4Wq0XOJL7daBtxin-11" value="" style="ellipse;whiteSpace=wrap;html=1;fillColor=#009999;" vertex="1" parent="1">
          <mxGeometry x="700" y="120" width="40" height="40" as="geometry" />
        </mxCell>
        <mxCell id="dtDx4Wq0XOJL7daBtxin-12" value="" style="ellipse;whiteSpace=wrap;html=1;fillColor=#009999;" vertex="1" parent="1">
          <mxGeometry x="700" y="220" width="40" height="40" as="geometry" />
        </mxCell>
        <mxCell id="dtDx4Wq0XOJL7daBtxin-13" value="" style="ellipse;whiteSpace=wrap;html=1;fillColor=#009999;" vertex="1" parent="1">
          <mxGeometry x="700" y="340" width="40" height="40" as="geometry" />
        </mxCell>
        <mxCell id="dtDx4Wq0XOJL7daBtxin-14" value="" style="ellipse;whiteSpace=wrap;html=1;fillColor=#009999;" vertex="1" parent="1">
          <mxGeometry x="920" y="120" width="40" height="40" as="geometry" />
        </mxCell>
        <mxCell id="dtDx4Wq0XOJL7daBtxin-15" value="" style="ellipse;whiteSpace=wrap;html=1;fillColor=#009999;" vertex="1" parent="1">
          <mxGeometry x="920" y="220" width="40" height="40" as="geometry" />
        </mxCell>
        <mxCell id="dtDx4Wq0XOJL7daBtxin-16" value="" style="ellipse;whiteSpace=wrap;html=1;fillColor=#009999;" vertex="1" parent="1">
          <mxGeometry x="920" y="340" width="40" height="40" as="geometry" />
        </mxCell>
        <mxCell id="dtDx4Wq0XOJL7daBtxin-17" value="" style="ellipse;whiteSpace=wrap;html=1;fillColor=#009999;" vertex="1" parent="1">
          <mxGeometry x="1050" y="220" width="40" height="40" as="geometry" />
        </mxCell>
        <mxCell id="dtDx4Wq0XOJL7daBtxin-18" value="" style="endArrow=none;dashed=1;html=1;dashPattern=1 3;strokeWidth=2;rounded=0;entryX=0.5;entryY=1;entryDx=0;entryDy=0;exitX=0.5;exitY=0;exitDx=0;exitDy=0;" edge="1" parent="1" source="dtDx4Wq0XOJL7daBtxin-6" target="dtDx4Wq0XOJL7daBtxin-5">
          <mxGeometry width="50" height="50" relative="1" as="geometry">
            <mxPoint x="440" y="350" as="sourcePoint" />
            <mxPoint x="490" y="300" as="targetPoint" />
          </mxGeometry>
        </mxCell>
        <mxCell id="dtDx4Wq0XOJL7daBtxin-19" value="" style="endArrow=none;dashed=1;html=1;dashPattern=1 3;strokeWidth=2;rounded=0;entryX=0.5;entryY=1;entryDx=0;entryDy=0;exitX=0.5;exitY=0;exitDx=0;exitDy=0;" edge="1" parent="1" source="dtDx4Wq0XOJL7daBtxin-10" target="dtDx4Wq0XOJL7daBtxin-9">
          <mxGeometry width="50" height="50" relative="1" as="geometry">
            <mxPoint x="420" y="340" as="sourcePoint" />
            <mxPoint x="420" y="260" as="targetPoint" />
            <Array as="points" />
          </mxGeometry>
        </mxCell>
        <mxCell id="dtDx4Wq0XOJL7daBtxin-20" value="" style="endArrow=none;dashed=1;html=1;dashPattern=1 3;strokeWidth=2;rounded=0;entryX=0.5;entryY=1;entryDx=0;entryDy=0;" edge="1" parent="1" source="dtDx4Wq0XOJL7daBtxin-13" target="dtDx4Wq0XOJL7daBtxin-12">
          <mxGeometry width="50" height="50" relative="1" as="geometry">
            <mxPoint x="500" y="380" as="sourcePoint" />
            <mxPoint x="500" y="290" as="targetPoint" />
            <Array as="points" />
          </mxGeometry>
        </mxCell>
        <mxCell id="dtDx4Wq0XOJL7daBtxin-21" value="" style="endArrow=none;dashed=1;html=1;dashPattern=1 3;strokeWidth=2;rounded=0;entryX=0.5;entryY=1;entryDx=0;entryDy=0;exitX=0.5;exitY=0;exitDx=0;exitDy=0;" edge="1" parent="1" source="dtDx4Wq0XOJL7daBtxin-16" target="dtDx4Wq0XOJL7daBtxin-15">
          <mxGeometry width="50" height="50" relative="1" as="geometry">
            <mxPoint x="510" y="390" as="sourcePoint" />
            <mxPoint x="510" y="300" as="targetPoint" />
            <Array as="points" />
          </mxGeometry>
        </mxCell>
        <mxCell id="dtDx4Wq0XOJL7daBtxin-47" value="" style="endArrow=none;html=1;rounded=0;exitX=1;exitY=0.5;exitDx=0;exitDy=0;entryX=0;entryY=1;entryDx=0;entryDy=0;" edge="1" parent="1" source="dtDx4Wq0XOJL7daBtxin-4" target="dtDx4Wq0XOJL7daBtxin-7">
          <mxGeometry width="50" height="50" relative="1" as="geometry">
            <mxPoint x="610" y="260" as="sourcePoint" />
            <mxPoint x="660" y="210" as="targetPoint" />
          </mxGeometry>
        </mxCell>
        <mxCell id="dtDx4Wq0XOJL7daBtxin-49" value="" style="endArrow=none;html=1;rounded=0;exitX=1;exitY=0.5;exitDx=0;exitDy=0;entryX=0;entryY=0.5;entryDx=0;entryDy=0;" edge="1" parent="1" source="dtDx4Wq0XOJL7daBtxin-4" target="dtDx4Wq0XOJL7daBtxin-8">
          <mxGeometry width="50" height="50" relative="1" as="geometry">
            <mxPoint x="450" y="170" as="sourcePoint" />
            <mxPoint x="496" y="134" as="targetPoint" />
          </mxGeometry>
        </mxCell>
        <mxCell id="dtDx4Wq0XOJL7daBtxin-50" value="" style="endArrow=none;html=1;rounded=0;exitX=1;exitY=0.5;exitDx=0;exitDy=0;entryX=0.066;entryY=0.322;entryDx=0;entryDy=0;entryPerimeter=0;" edge="1" parent="1" source="dtDx4Wq0XOJL7daBtxin-4" target="dtDx4Wq0XOJL7daBtxin-9">
          <mxGeometry width="50" height="50" relative="1" as="geometry">
            <mxPoint x="460" y="180" as="sourcePoint" />
            <mxPoint x="506" y="144" as="targetPoint" />
          </mxGeometry>
        </mxCell>
        <mxCell id="dtDx4Wq0XOJL7daBtxin-51" value="" style="endArrow=none;html=1;rounded=0;exitX=1;exitY=0.5;exitDx=0;exitDy=0;entryX=0;entryY=0;entryDx=0;entryDy=0;" edge="1" parent="1" source="dtDx4Wq0XOJL7daBtxin-4" target="dtDx4Wq0XOJL7daBtxin-10">
          <mxGeometry width="50" height="50" relative="1" as="geometry">
            <mxPoint x="470" y="190" as="sourcePoint" />
            <mxPoint x="516" y="154" as="targetPoint" />
          </mxGeometry>
        </mxCell>
        <mxCell id="dtDx4Wq0XOJL7daBtxin-52" value="" style="endArrow=none;html=1;rounded=0;entryX=0;entryY=1;entryDx=0;entryDy=0;exitX=1;exitY=0.5;exitDx=0;exitDy=0;" edge="1" parent="1" source="dtDx4Wq0XOJL7daBtxin-5" target="dtDx4Wq0XOJL7daBtxin-7">
          <mxGeometry width="50" height="50" relative="1" as="geometry">
            <mxPoint x="440" y="230" as="sourcePoint" />
            <mxPoint x="526" y="164" as="targetPoint" />
          </mxGeometry>
        </mxCell>
        <mxCell id="dtDx4Wq0XOJL7daBtxin-53" value="" style="endArrow=none;html=1;rounded=0;exitX=1;exitY=0.5;exitDx=0;exitDy=0;entryX=0;entryY=0.5;entryDx=0;entryDy=0;" edge="1" parent="1" source="dtDx4Wq0XOJL7daBtxin-5" target="dtDx4Wq0XOJL7daBtxin-8">
          <mxGeometry width="50" height="50" relative="1" as="geometry">
            <mxPoint x="490" y="210" as="sourcePoint" />
            <mxPoint x="536" y="174" as="targetPoint" />
          </mxGeometry>
        </mxCell>
        <mxCell id="dtDx4Wq0XOJL7daBtxin-54" value="" style="endArrow=none;html=1;rounded=0;entryX=1;entryY=0.5;entryDx=0;entryDy=0;exitX=0.01;exitY=0.336;exitDx=0;exitDy=0;exitPerimeter=0;" edge="1" parent="1" source="dtDx4Wq0XOJL7daBtxin-9" target="dtDx4Wq0XOJL7daBtxin-5">
          <mxGeometry width="50" height="50" relative="1" as="geometry">
            <mxPoint x="480" y="250" as="sourcePoint" />
            <mxPoint x="460" y="220" as="targetPoint" />
          </mxGeometry>
        </mxCell>
        <mxCell id="dtDx4Wq0XOJL7daBtxin-55" value="" style="endArrow=none;html=1;rounded=0;entryX=0;entryY=0;entryDx=0;entryDy=0;" edge="1" parent="1" target="dtDx4Wq0XOJL7daBtxin-10">
          <mxGeometry width="50" height="50" relative="1" as="geometry">
            <mxPoint x="440" y="240" as="sourcePoint" />
            <mxPoint x="556" y="194" as="targetPoint" />
          </mxGeometry>
        </mxCell>
        <mxCell id="dtDx4Wq0XOJL7daBtxin-56" value="" style="endArrow=none;html=1;rounded=0;entryX=0;entryY=1;entryDx=0;entryDy=0;exitX=1;exitY=0;exitDx=0;exitDy=0;" edge="1" parent="1" source="dtDx4Wq0XOJL7daBtxin-6" target="dtDx4Wq0XOJL7daBtxin-7">
          <mxGeometry width="50" height="50" relative="1" as="geometry">
            <mxPoint x="520" y="240" as="sourcePoint" />
            <mxPoint x="566" y="204" as="targetPoint" />
          </mxGeometry>
        </mxCell>
        <mxCell id="dtDx4Wq0XOJL7daBtxin-57" value="" style="endArrow=none;html=1;rounded=0;exitX=1;exitY=0;exitDx=0;exitDy=0;" edge="1" parent="1" source="dtDx4Wq0XOJL7daBtxin-6">
          <mxGeometry width="50" height="50" relative="1" as="geometry">
            <mxPoint x="430" y="340" as="sourcePoint" />
            <mxPoint x="480" y="190" as="targetPoint" />
          </mxGeometry>
        </mxCell>
        <mxCell id="dtDx4Wq0XOJL7daBtxin-59" value="" style="endArrow=none;html=1;rounded=0;entryX=0;entryY=0;entryDx=0;entryDy=0;exitX=1;exitY=0;exitDx=0;exitDy=0;" edge="1" parent="1" source="dtDx4Wq0XOJL7daBtxin-6" target="dtDx4Wq0XOJL7daBtxin-9">
          <mxGeometry width="50" height="50" relative="1" as="geometry">
            <mxPoint x="440" y="340" as="sourcePoint" />
            <mxPoint x="586" y="224" as="targetPoint" />
          </mxGeometry>
        </mxCell>
        <mxCell id="dtDx4Wq0XOJL7daBtxin-60" value="" style="endArrow=none;html=1;rounded=0;exitX=1;exitY=0;exitDx=0;exitDy=0;entryX=0;entryY=0;entryDx=0;entryDy=0;" edge="1" parent="1" source="dtDx4Wq0XOJL7daBtxin-6" target="dtDx4Wq0XOJL7daBtxin-10">
          <mxGeometry width="50" height="50" relative="1" as="geometry">
            <mxPoint x="550" y="270" as="sourcePoint" />
            <mxPoint x="596" y="234" as="targetPoint" />
          </mxGeometry>
        </mxCell>
        <mxCell id="dtDx4Wq0XOJL7daBtxin-61" value="" style="endArrow=none;html=1;rounded=0;exitX=1;exitY=0.5;exitDx=0;exitDy=0;entryX=0;entryY=0.5;entryDx=0;entryDy=0;" edge="1" parent="1" source="dtDx4Wq0XOJL7daBtxin-10" target="dtDx4Wq0XOJL7daBtxin-13">
          <mxGeometry width="50" height="50" relative="1" as="geometry">
            <mxPoint x="560" y="280" as="sourcePoint" />
            <mxPoint x="606" y="244" as="targetPoint" />
          </mxGeometry>
        </mxCell>
        <mxCell id="dtDx4Wq0XOJL7daBtxin-62" value="" style="endArrow=none;html=1;rounded=0;exitX=1;exitY=0.5;exitDx=0;exitDy=0;entryX=0;entryY=0.5;entryDx=0;entryDy=0;" edge="1" parent="1" source="dtDx4Wq0XOJL7daBtxin-10" target="dtDx4Wq0XOJL7daBtxin-12">
          <mxGeometry width="50" height="50" relative="1" as="geometry">
            <mxPoint x="570" y="290" as="sourcePoint" />
            <mxPoint x="616" y="254" as="targetPoint" />
          </mxGeometry>
        </mxCell>
        <mxCell id="dtDx4Wq0XOJL7daBtxin-63" value="" style="endArrow=none;html=1;rounded=0;exitX=1;exitY=0.5;exitDx=0;exitDy=0;entryX=0;entryY=1;entryDx=0;entryDy=0;" edge="1" parent="1" source="dtDx4Wq0XOJL7daBtxin-10" target="dtDx4Wq0XOJL7daBtxin-11">
          <mxGeometry width="50" height="50" relative="1" as="geometry">
            <mxPoint x="580" y="300" as="sourcePoint" />
            <mxPoint x="626" y="264" as="targetPoint" />
          </mxGeometry>
        </mxCell>
        <mxCell id="dtDx4Wq0XOJL7daBtxin-64" value="" style="endArrow=none;html=1;rounded=0;exitX=1;exitY=0.5;exitDx=0;exitDy=0;entryX=0;entryY=0.5;entryDx=0;entryDy=0;" edge="1" parent="1" source="dtDx4Wq0XOJL7daBtxin-9" target="dtDx4Wq0XOJL7daBtxin-13">
          <mxGeometry width="50" height="50" relative="1" as="geometry">
            <mxPoint x="590" y="310" as="sourcePoint" />
            <mxPoint x="636" y="274" as="targetPoint" />
          </mxGeometry>
        </mxCell>
        <mxCell id="dtDx4Wq0XOJL7daBtxin-65" value="" style="endArrow=none;html=1;rounded=0;exitX=1;exitY=0.5;exitDx=0;exitDy=0;entryX=0;entryY=0.5;entryDx=0;entryDy=0;" edge="1" parent="1" source="dtDx4Wq0XOJL7daBtxin-9" target="dtDx4Wq0XOJL7daBtxin-12">
          <mxGeometry width="50" height="50" relative="1" as="geometry">
            <mxPoint x="600" y="320" as="sourcePoint" />
            <mxPoint x="646" y="284" as="targetPoint" />
          </mxGeometry>
        </mxCell>
        <mxCell id="dtDx4Wq0XOJL7daBtxin-66" value="" style="endArrow=none;html=1;rounded=0;entryX=0;entryY=1;entryDx=0;entryDy=0;exitX=1;exitY=0.5;exitDx=0;exitDy=0;" edge="1" parent="1" source="dtDx4Wq0XOJL7daBtxin-9" target="dtDx4Wq0XOJL7daBtxin-11">
          <mxGeometry width="50" height="50" relative="1" as="geometry">
            <mxPoint x="540" y="280" as="sourcePoint" />
            <mxPoint x="656" y="294" as="targetPoint" />
          </mxGeometry>
        </mxCell>
        <mxCell id="dtDx4Wq0XOJL7daBtxin-67" value="" style="endArrow=none;html=1;rounded=0;exitX=1;exitY=1;exitDx=0;exitDy=0;entryX=0;entryY=0.5;entryDx=0;entryDy=0;" edge="1" parent="1" source="dtDx4Wq0XOJL7daBtxin-8" target="dtDx4Wq0XOJL7daBtxin-13">
          <mxGeometry width="50" height="50" relative="1" as="geometry">
            <mxPoint x="620" y="340" as="sourcePoint" />
            <mxPoint x="666" y="304" as="targetPoint" />
          </mxGeometry>
        </mxCell>
        <mxCell id="dtDx4Wq0XOJL7daBtxin-68" value="" style="endArrow=none;html=1;rounded=0;exitX=1;exitY=1;exitDx=0;exitDy=0;entryX=0;entryY=0.5;entryDx=0;entryDy=0;" edge="1" parent="1" source="dtDx4Wq0XOJL7daBtxin-8" target="dtDx4Wq0XOJL7daBtxin-12">
          <mxGeometry width="50" height="50" relative="1" as="geometry">
            <mxPoint x="630" y="350" as="sourcePoint" />
            <mxPoint x="676" y="314" as="targetPoint" />
          </mxGeometry>
        </mxCell>
        <mxCell id="dtDx4Wq0XOJL7daBtxin-69" value="" style="endArrow=none;html=1;rounded=0;exitX=1;exitY=1;exitDx=0;exitDy=0;entryX=0;entryY=1;entryDx=0;entryDy=0;" edge="1" parent="1" source="dtDx4Wq0XOJL7daBtxin-8" target="dtDx4Wq0XOJL7daBtxin-11">
          <mxGeometry width="50" height="50" relative="1" as="geometry">
            <mxPoint x="640" y="360" as="sourcePoint" />
            <mxPoint x="686" y="324" as="targetPoint" />
          </mxGeometry>
        </mxCell>
        <mxCell id="dtDx4Wq0XOJL7daBtxin-70" value="" style="endArrow=none;html=1;rounded=0;exitX=1;exitY=1;exitDx=0;exitDy=0;entryX=0;entryY=1;entryDx=0;entryDy=0;" edge="1" parent="1" source="dtDx4Wq0XOJL7daBtxin-7" target="dtDx4Wq0XOJL7daBtxin-11">
          <mxGeometry width="50" height="50" relative="1" as="geometry">
            <mxPoint x="650" y="370" as="sourcePoint" />
            <mxPoint x="696" y="334" as="targetPoint" />
          </mxGeometry>
        </mxCell>
        <mxCell id="dtDx4Wq0XOJL7daBtxin-71" value="" style="endArrow=none;html=1;rounded=0;exitX=1;exitY=1;exitDx=0;exitDy=0;entryX=0;entryY=0.5;entryDx=0;entryDy=0;" edge="1" parent="1" source="dtDx4Wq0XOJL7daBtxin-7" target="dtDx4Wq0XOJL7daBtxin-12">
          <mxGeometry width="50" height="50" relative="1" as="geometry">
            <mxPoint x="660" y="380" as="sourcePoint" />
            <mxPoint x="706" y="344" as="targetPoint" />
          </mxGeometry>
        </mxCell>
        <mxCell id="dtDx4Wq0XOJL7daBtxin-72" value="" style="endArrow=none;html=1;rounded=0;exitX=1;exitY=1;exitDx=0;exitDy=0;entryX=0;entryY=0.5;entryDx=0;entryDy=0;" edge="1" parent="1" source="dtDx4Wq0XOJL7daBtxin-7" target="dtDx4Wq0XOJL7daBtxin-13">
          <mxGeometry width="50" height="50" relative="1" as="geometry">
            <mxPoint x="670" y="390" as="sourcePoint" />
            <mxPoint x="716" y="354" as="targetPoint" />
          </mxGeometry>
        </mxCell>
        <mxCell id="dtDx4Wq0XOJL7daBtxin-73" value="" style="rounded=0;whiteSpace=wrap;html=1;fillColor=#FF6666;" vertex="1" parent="1">
          <mxGeometry x="790" y="80" width="40" height="350" as="geometry" />
        </mxCell>
        <mxCell id="dtDx4Wq0XOJL7daBtxin-74" value="" style="endArrow=none;html=1;rounded=0;exitX=1;exitY=0.25;exitDx=0;exitDy=0;entryX=0;entryY=0.5;entryDx=0;entryDy=0;" edge="1" parent="1" source="dtDx4Wq0XOJL7daBtxin-73" target="dtDx4Wq0XOJL7daBtxin-14">
          <mxGeometry width="50" height="50" relative="1" as="geometry">
            <mxPoint x="680" y="400" as="sourcePoint" />
            <mxPoint x="726" y="364" as="targetPoint" />
          </mxGeometry>
        </mxCell>
        <mxCell id="dtDx4Wq0XOJL7daBtxin-75" value="" style="endArrow=none;html=1;rounded=0;exitX=1;exitY=0.25;exitDx=0;exitDy=0;entryX=0;entryY=0.5;entryDx=0;entryDy=0;" edge="1" parent="1" source="dtDx4Wq0XOJL7daBtxin-73" target="dtDx4Wq0XOJL7daBtxin-15">
          <mxGeometry width="50" height="50" relative="1" as="geometry">
            <mxPoint x="690" y="410" as="sourcePoint" />
            <mxPoint x="736" y="374" as="targetPoint" />
          </mxGeometry>
        </mxCell>
        <mxCell id="dtDx4Wq0XOJL7daBtxin-76" value="" style="endArrow=none;html=1;rounded=0;entryX=0;entryY=0.5;entryDx=0;entryDy=0;exitX=1;exitY=0.25;exitDx=0;exitDy=0;" edge="1" parent="1" source="dtDx4Wq0XOJL7daBtxin-73" target="dtDx4Wq0XOJL7daBtxin-16">
          <mxGeometry width="50" height="50" relative="1" as="geometry">
            <mxPoint x="850" y="140" as="sourcePoint" />
            <mxPoint x="746" y="384" as="targetPoint" />
          </mxGeometry>
        </mxCell>
        <mxCell id="dtDx4Wq0XOJL7daBtxin-77" value="" style="endArrow=none;html=1;rounded=0;entryX=0;entryY=0.5;entryDx=0;entryDy=0;exitX=1;exitY=0.5;exitDx=0;exitDy=0;" edge="1" parent="1" source="dtDx4Wq0XOJL7daBtxin-73" target="dtDx4Wq0XOJL7daBtxin-15">
          <mxGeometry width="50" height="50" relative="1" as="geometry">
            <mxPoint x="850" y="239" as="sourcePoint" />
            <mxPoint x="756" y="394" as="targetPoint" />
          </mxGeometry>
        </mxCell>
        <mxCell id="dtDx4Wq0XOJL7daBtxin-78" value="" style="endArrow=none;html=1;rounded=0;exitX=1;exitY=0.5;exitDx=0;exitDy=0;entryX=0;entryY=0.5;entryDx=0;entryDy=0;" edge="1" parent="1" source="dtDx4Wq0XOJL7daBtxin-73" target="dtDx4Wq0XOJL7daBtxin-14">
          <mxGeometry width="50" height="50" relative="1" as="geometry">
            <mxPoint x="720" y="440" as="sourcePoint" />
            <mxPoint x="766" y="404" as="targetPoint" />
          </mxGeometry>
        </mxCell>
        <mxCell id="dtDx4Wq0XOJL7daBtxin-79" value="" style="endArrow=none;html=1;rounded=0;exitX=1;exitY=0.5;exitDx=0;exitDy=0;entryX=0;entryY=0.5;entryDx=0;entryDy=0;" edge="1" parent="1" source="dtDx4Wq0XOJL7daBtxin-73" target="dtDx4Wq0XOJL7daBtxin-16">
          <mxGeometry width="50" height="50" relative="1" as="geometry">
            <mxPoint x="730" y="450" as="sourcePoint" />
            <mxPoint x="776" y="414" as="targetPoint" />
          </mxGeometry>
        </mxCell>
        <mxCell id="dtDx4Wq0XOJL7daBtxin-80" value="" style="endArrow=none;html=1;rounded=0;exitX=0.998;exitY=0.791;exitDx=0;exitDy=0;entryX=0;entryY=0.5;entryDx=0;entryDy=0;exitPerimeter=0;" edge="1" parent="1" source="dtDx4Wq0XOJL7daBtxin-73" target="dtDx4Wq0XOJL7daBtxin-14">
          <mxGeometry width="50" height="50" relative="1" as="geometry">
            <mxPoint x="740" y="460" as="sourcePoint" />
            <mxPoint x="786" y="424" as="targetPoint" />
          </mxGeometry>
        </mxCell>
        <mxCell id="dtDx4Wq0XOJL7daBtxin-81" value="" style="endArrow=none;html=1;rounded=0;exitX=0.998;exitY=0.794;exitDx=0;exitDy=0;entryX=0;entryY=0.5;entryDx=0;entryDy=0;exitPerimeter=0;" edge="1" parent="1" source="dtDx4Wq0XOJL7daBtxin-73" target="dtDx4Wq0XOJL7daBtxin-15">
          <mxGeometry width="50" height="50" relative="1" as="geometry">
            <mxPoint x="750" y="470" as="sourcePoint" />
            <mxPoint x="796" y="434" as="targetPoint" />
          </mxGeometry>
        </mxCell>
        <mxCell id="dtDx4Wq0XOJL7daBtxin-82" value="" style="endArrow=none;html=1;rounded=0;entryX=0;entryY=0.5;entryDx=0;entryDy=0;exitX=1.007;exitY=0.794;exitDx=0;exitDy=0;exitPerimeter=0;" edge="1" parent="1" source="dtDx4Wq0XOJL7daBtxin-73" target="dtDx4Wq0XOJL7daBtxin-16">
          <mxGeometry width="50" height="50" relative="1" as="geometry">
            <mxPoint x="860" y="380" as="sourcePoint" />
            <mxPoint x="806" y="444" as="targetPoint" />
          </mxGeometry>
        </mxCell>
        <mxCell id="dtDx4Wq0XOJL7daBtxin-83" value="" style="endArrow=none;html=1;rounded=0;exitX=1;exitY=0.5;exitDx=0;exitDy=0;entryX=0;entryY=0.5;entryDx=0;entryDy=0;" edge="1" parent="1" source="dtDx4Wq0XOJL7daBtxin-14" target="dtDx4Wq0XOJL7daBtxin-17">
          <mxGeometry width="50" height="50" relative="1" as="geometry">
            <mxPoint x="770" y="490" as="sourcePoint" />
            <mxPoint x="816" y="454" as="targetPoint" />
          </mxGeometry>
        </mxCell>
        <mxCell id="dtDx4Wq0XOJL7daBtxin-84" value="" style="endArrow=none;html=1;rounded=0;exitX=1;exitY=0.5;exitDx=0;exitDy=0;entryX=0;entryY=0.5;entryDx=0;entryDy=0;" edge="1" parent="1" source="dtDx4Wq0XOJL7daBtxin-15" target="dtDx4Wq0XOJL7daBtxin-17">
          <mxGeometry width="50" height="50" relative="1" as="geometry">
            <mxPoint x="780" y="500" as="sourcePoint" />
            <mxPoint x="826" y="464" as="targetPoint" />
          </mxGeometry>
        </mxCell>
        <mxCell id="dtDx4Wq0XOJL7daBtxin-85" value="" style="endArrow=none;html=1;rounded=0;exitX=1;exitY=0;exitDx=0;exitDy=0;entryX=0;entryY=0.5;entryDx=0;entryDy=0;" edge="1" parent="1" source="dtDx4Wq0XOJL7daBtxin-16" target="dtDx4Wq0XOJL7daBtxin-17">
          <mxGeometry width="50" height="50" relative="1" as="geometry">
            <mxPoint x="790" y="510" as="sourcePoint" />
            <mxPoint x="836" y="474" as="targetPoint" />
          </mxGeometry>
        </mxCell>
        <mxCell id="dtDx4Wq0XOJL7daBtxin-86" value="&lt;b style=&quot;forced-color-adjust: none; color: rgb(0, 0, 0); font-style: normal; font-variant-ligatures: normal; font-variant-caps: normal; letter-spacing: normal; orphans: 2; text-align: center; text-indent: 0px; text-transform: none; widows: 2; word-spacing: 0px; -webkit-text-stroke-width: 0px; white-space: normal; background-color: rgb(251, 251, 251); text-decoration-thickness: initial; text-decoration-style: initial; text-decoration-color: initial;&quot;&gt;&lt;font face=&quot;Helvetica&quot; style=&quot;font-size: 16px;&quot;&gt;Softmax Scores&lt;/font&gt;&lt;/b&gt;" style="rounded=0;whiteSpace=wrap;html=1;strokeWidth=2;" vertex="1" parent="1">
          <mxGeometry x="1200" y="210" width="150" height="60" as="geometry" />
        </mxCell>
        <mxCell id="dtDx4Wq0XOJL7daBtxin-87" value="&lt;font style=&quot;font-size: 16px;&quot;&gt;&lt;b style=&quot;&quot;&gt;Input Features&lt;/b&gt;&lt;/font&gt;" style="text;html=1;align=center;verticalAlign=middle;whiteSpace=wrap;rounded=0;" vertex="1" parent="1">
          <mxGeometry x="390" y="30" width="60" height="30" as="geometry" />
        </mxCell>
        <mxCell id="dtDx4Wq0XOJL7daBtxin-88" value="&lt;font face=&quot;Helvetica&quot; size=&quot;3&quot;&gt;&lt;b style=&quot;&quot;&gt;Dense Layer&lt;/b&gt;&lt;/font&gt;" style="text;html=1;align=center;verticalAlign=middle;whiteSpace=wrap;rounded=0;" vertex="1" parent="1">
          <mxGeometry x="530" y="30" width="60" height="30" as="geometry" />
        </mxCell>
        <mxCell id="dtDx4Wq0XOJL7daBtxin-89" value="&lt;font face=&quot;Helvetica&quot; size=&quot;3&quot;&gt;&lt;b style=&quot;&quot;&gt;Dense Layer&lt;/b&gt;&lt;/font&gt;" style="text;html=1;align=center;verticalAlign=middle;whiteSpace=wrap;rounded=0;" vertex="1" parent="1">
          <mxGeometry x="690" y="30" width="60" height="30" as="geometry" />
        </mxCell>
        <mxCell id="dtDx4Wq0XOJL7daBtxin-90" value="&lt;font face=&quot;Helvetica&quot; size=&quot;3&quot;&gt;&lt;b style=&quot;&quot;&gt;BN Layer&lt;/b&gt;&lt;/font&gt;" style="text;html=1;align=center;verticalAlign=middle;whiteSpace=wrap;rounded=0;" vertex="1" parent="1">
          <mxGeometry x="780" y="30" width="60" height="30" as="geometry" />
        </mxCell>
        <mxCell id="dtDx4Wq0XOJL7daBtxin-91" value="&lt;font face=&quot;Helvetica&quot; size=&quot;3&quot;&gt;&lt;b style=&quot;&quot;&gt;Dropout Layer&lt;/b&gt;&lt;/font&gt;" style="text;html=1;align=center;verticalAlign=middle;whiteSpace=wrap;rounded=0;" vertex="1" parent="1">
          <mxGeometry x="910" y="30" width="60" height="30" as="geometry" />
        </mxCell>
        <mxCell id="dtDx4Wq0XOJL7daBtxin-92" value="&lt;font face=&quot;Helvetica&quot; size=&quot;3&quot;&gt;&lt;b style=&quot;&quot;&gt;Output Layer&lt;/b&gt;&lt;/font&gt;" style="text;html=1;align=center;verticalAlign=middle;whiteSpace=wrap;rounded=0;" vertex="1" parent="1">
          <mxGeometry x="1040" y="30" width="60" height="30" as="geometry" />
        </mxCell>
        <mxCell id="dtDx4Wq0XOJL7daBtxin-93" value="&lt;font face=&quot;Helvetica&quot; size=&quot;3&quot;&gt;&lt;b style=&quot;&quot;&gt;64 Neurons&lt;/b&gt;&lt;/font&gt;" style="text;html=1;align=center;verticalAlign=middle;whiteSpace=wrap;rounded=0;" vertex="1" parent="1">
          <mxGeometry x="530" y="450" width="60" height="30" as="geometry" />
        </mxCell>
        <mxCell id="dtDx4Wq0XOJL7daBtxin-94" value="&lt;font face=&quot;Helvetica&quot; size=&quot;3&quot;&gt;&lt;b style=&quot;&quot;&gt;32 Neurons&lt;/b&gt;&lt;/font&gt;" style="text;html=1;align=center;verticalAlign=middle;whiteSpace=wrap;rounded=0;" vertex="1" parent="1">
          <mxGeometry x="690" y="450" width="60" height="30" as="geometry" />
        </mxCell>
        <mxCell id="dtDx4Wq0XOJL7daBtxin-95" value="&lt;font face=&quot;Helvetica&quot; size=&quot;3&quot;&gt;&lt;b style=&quot;&quot;&gt;Rate 0.2&lt;/b&gt;&lt;/font&gt;" style="text;html=1;align=center;verticalAlign=middle;whiteSpace=wrap;rounded=0;" vertex="1" parent="1">
          <mxGeometry x="910" y="450" width="60" height="30" as="geometry" />
        </mxCell>
        <mxCell id="dtDx4Wq0XOJL7daBtxin-96" value="&lt;font face=&quot;Helvetica&quot; style=&quot;font-size: 20px;&quot;&gt;&lt;b style=&quot;&quot;&gt;Normalize the Outputs&lt;/b&gt;&lt;/font&gt;" style="text;html=1;align=center;verticalAlign=middle;whiteSpace=wrap;rounded=0;rotation=90;" vertex="1" parent="1">
          <mxGeometry x="585" y="217.5" width="450" height="75" as="geometry" />
        </mxCell>
        <mxCell id="dtDx4Wq0XOJL7daBtxin-97" value="" style="endArrow=classic;html=1;rounded=0;exitX=1;exitY=0.5;exitDx=0;exitDy=0;entryX=0;entryY=0.5;entryDx=0;entryDy=0;endSize=6;" edge="1" parent="1" source="dtDx4Wq0XOJL7daBtxin-1" target="dtDx4Wq0XOJL7daBtxin-3">
          <mxGeometry width="50" height="50" relative="1" as="geometry">
            <mxPoint x="670" y="270" as="sourcePoint" />
            <mxPoint x="720" y="220" as="targetPoint" />
          </mxGeometry>
        </mxCell>
        <mxCell id="dtDx4Wq0XOJL7daBtxin-99" value="" style="endArrow=classic;html=1;rounded=0;exitX=1;exitY=0.5;exitDx=0;exitDy=0;" edge="1" parent="1" source="dtDx4Wq0XOJL7daBtxin-3">
          <mxGeometry width="50" height="50" relative="1" as="geometry">
            <mxPoint x="340" y="240" as="sourcePoint" />
            <mxPoint x="360" y="240" as="targetPoint" />
          </mxGeometry>
        </mxCell>
        <mxCell id="dtDx4Wq0XOJL7daBtxin-101" value="" style="endArrow=classic;html=1;rounded=0;entryX=0;entryY=0.5;entryDx=0;entryDy=0;" edge="1" parent="1" target="dtDx4Wq0XOJL7daBtxin-86">
          <mxGeometry width="50" height="50" relative="1" as="geometry">
            <mxPoint x="1120" y="240" as="sourcePoint" />
            <mxPoint x="190" y="260" as="targetPoint" />
          </mxGeometry>
        </mxCell>
        <mxCell id="dtDx4Wq0XOJL7daBtxin-103" value="&lt;font face=&quot;Helvetica&quot; style=&quot;font-size: 24px;&quot;&gt;&lt;b style=&quot;&quot;&gt;Feed Forward Neural Network&lt;/b&gt;&lt;/font&gt;" style="text;html=1;align=center;verticalAlign=middle;whiteSpace=wrap;rounded=0;" vertex="1" parent="1">
          <mxGeometry x="410" y="-50" width="650" height="50" as="geometry" />
        </mxCell>
        <mxCell id="dtDx4Wq0XOJL7daBtxin-104" value="&lt;font style=&quot;font-size: 24px;&quot;&gt;&lt;b style=&quot;&quot;&gt;Feed Forward Neural Network Model&lt;/b&gt;&lt;/font&gt;" style="text;html=1;align=left;verticalAlign=middle;whiteSpace=wrap;rounded=0;" vertex="1" parent="1">
          <mxGeometry x="10" y="-130" width="650" height="50" as="geometry" />
        </mxCell>
        <mxCell id="dtDx4Wq0XOJL7daBtxin-105" value="&lt;span style=&quot;font-size: 24px;&quot;&gt;&lt;b style=&quot;&quot;&gt;&lt;font face=&quot;Helvetica&quot;&gt;Training Phase&lt;/font&gt;&lt;/b&gt;&lt;/span&gt;" style="text;html=1;align=left;verticalAlign=middle;whiteSpace=wrap;rounded=0;" vertex="1" parent="1">
          <mxGeometry y="460" width="650" height="50" as="geometry" />
        </mxCell>
        <mxCell id="dtDx4Wq0XOJL7daBtxin-108" value="" style="rounded=0;whiteSpace=wrap;html=1;" vertex="1" parent="1">
          <mxGeometry x="-40" y="600" width="1440" height="280" as="geometry" />
        </mxCell>
        <mxCell id="dtDx4Wq0XOJL7daBtxin-109" value="&lt;span style=&quot;font-size: 16px;&quot;&gt;&lt;b&gt;User Input&lt;/b&gt;&lt;/span&gt;" style="ellipse;whiteSpace=wrap;html=1;strokeWidth=2;" vertex="1" parent="1">
          <mxGeometry x="10" y="720" width="70" height="70" as="geometry" />
        </mxCell>
        <mxCell id="dtDx4Wq0XOJL7daBtxin-110" value="&lt;span style=&quot;font-size: 16px;&quot;&gt;&lt;b&gt;Web page&lt;/b&gt;&lt;/span&gt;" style="rounded=0;whiteSpace=wrap;html=1;strokeWidth=2;" vertex="1" parent="1">
          <mxGeometry x="150" y="725" width="170" height="60" as="geometry" />
        </mxCell>
        <mxCell id="dtDx4Wq0XOJL7daBtxin-111" value="&lt;span style=&quot;font-size: 16px;&quot;&gt;&lt;b&gt;Data Pre-Processing&lt;/b&gt;&lt;/span&gt;" style="rounded=0;whiteSpace=wrap;html=1;strokeWidth=2;" vertex="1" parent="1">
          <mxGeometry x="410" y="725" width="170" height="60" as="geometry" />
        </mxCell>
        <mxCell id="dtDx4Wq0XOJL7daBtxin-112" value="&lt;span style=&quot;font-size: 16px;&quot;&gt;&lt;b&gt;Load Model&lt;/b&gt;&lt;/span&gt;" style="rounded=0;whiteSpace=wrap;html=1;strokeWidth=2;" vertex="1" parent="1">
          <mxGeometry x="720" y="725" width="170" height="60" as="geometry" />
        </mxCell>
        <mxCell id="dtDx4Wq0XOJL7daBtxin-113" value="&lt;span style=&quot;font-size: 16px;&quot;&gt;&lt;b&gt;Recommendation&lt;/b&gt;&lt;/span&gt;" style="rounded=0;whiteSpace=wrap;html=1;strokeWidth=2;" vertex="1" parent="1">
          <mxGeometry x="1030" y="725" width="170" height="60" as="geometry" />
        </mxCell>
        <mxCell id="dtDx4Wq0XOJL7daBtxin-115" value="" style="endArrow=classic;html=1;rounded=0;exitX=1;exitY=0.5;exitDx=0;exitDy=0;entryX=0;entryY=0.5;entryDx=0;entryDy=0;" edge="1" parent="1" source="dtDx4Wq0XOJL7daBtxin-109" target="dtDx4Wq0XOJL7daBtxin-110">
          <mxGeometry width="50" height="50" relative="1" as="geometry">
            <mxPoint x="1070" y="440" as="sourcePoint" />
            <mxPoint x="1120" y="390" as="targetPoint" />
          </mxGeometry>
        </mxCell>
        <mxCell id="dtDx4Wq0XOJL7daBtxin-118" value="" style="endArrow=classic;html=1;rounded=0;exitX=1;exitY=0.5;exitDx=0;exitDy=0;entryX=0;entryY=0.5;entryDx=0;entryDy=0;" edge="1" parent="1" source="dtDx4Wq0XOJL7daBtxin-110" target="dtDx4Wq0XOJL7daBtxin-111">
          <mxGeometry width="50" height="50" relative="1" as="geometry">
            <mxPoint x="340" y="830" as="sourcePoint" />
            <mxPoint x="410" y="830" as="targetPoint" />
          </mxGeometry>
        </mxCell>
        <mxCell id="dtDx4Wq0XOJL7daBtxin-119" value="" style="endArrow=classic;html=1;rounded=0;exitX=1;exitY=0.5;exitDx=0;exitDy=0;entryX=0;entryY=0.5;entryDx=0;entryDy=0;" edge="1" parent="1" source="dtDx4Wq0XOJL7daBtxin-111" target="dtDx4Wq0XOJL7daBtxin-112">
          <mxGeometry width="50" height="50" relative="1" as="geometry">
            <mxPoint x="110" y="785" as="sourcePoint" />
            <mxPoint x="180" y="785" as="targetPoint" />
            <Array as="points" />
          </mxGeometry>
        </mxCell>
        <mxCell id="dtDx4Wq0XOJL7daBtxin-120" value="" style="endArrow=classic;html=1;rounded=0;exitX=1;exitY=0.5;exitDx=0;exitDy=0;entryX=0;entryY=0.5;entryDx=0;entryDy=0;" edge="1" parent="1" source="dtDx4Wq0XOJL7daBtxin-112" target="dtDx4Wq0XOJL7daBtxin-113">
          <mxGeometry width="50" height="50" relative="1" as="geometry">
            <mxPoint x="120" y="795" as="sourcePoint" />
            <mxPoint x="190" y="795" as="targetPoint" />
            <Array as="points" />
          </mxGeometry>
        </mxCell>
        <mxCell id="dtDx4Wq0XOJL7daBtxin-122" value="&lt;font style=&quot;font-size: 16px;&quot;&gt;&lt;b style=&quot;&quot;&gt;Feed Data&lt;/b&gt;&lt;/font&gt;" style="text;html=1;align=center;verticalAlign=middle;whiteSpace=wrap;rounded=0;" vertex="1" parent="1">
          <mxGeometry x="580" y="725" width="140" height="30" as="geometry" />
        </mxCell>
        <mxCell id="dtDx4Wq0XOJL7daBtxin-123" value="" style="endArrow=classic;html=1;rounded=0;exitX=0.579;exitY=0.993;exitDx=0;exitDy=0;exitPerimeter=0;" edge="1" parent="1" source="dtDx4Wq0XOJL7daBtxin-100">
          <mxGeometry width="50" height="50" relative="1" as="geometry">
            <mxPoint x="720" y="460" as="sourcePoint" />
            <mxPoint x="800" y="725" as="targetPoint" />
          </mxGeometry>
        </mxCell>
        <mxCell id="dtDx4Wq0XOJL7daBtxin-124" value="&lt;font style=&quot;font-size: 16px;&quot;&gt;&lt;b style=&quot;&quot;&gt;Fine-Tuned Model&lt;/b&gt;&lt;/font&gt;" style="text;html=1;align=center;verticalAlign=middle;whiteSpace=wrap;rounded=0;" vertex="1" parent="1">
          <mxGeometry x="800" y="640" width="120" height="50" as="geometry" />
        </mxCell>
        <mxCell id="dtDx4Wq0XOJL7daBtxin-125" value="&lt;span style=&quot;font-size: 24px;&quot;&gt;&lt;b style=&quot;&quot;&gt;&lt;font face=&quot;Helvetica&quot;&gt;Testing Phase&lt;/font&gt;&lt;/b&gt;&lt;/span&gt;" style="text;html=1;align=left;verticalAlign=middle;whiteSpace=wrap;rounded=0;" vertex="1" parent="1">
          <mxGeometry x="-30" y="820" width="650" height="50" as="geometry" />
        </mxCell>
      </root>
    </mxGraphModel>
  </diagram>
</mxfile>
